<svg version="1.1" id="trajce_com_logo" xmlns="http://www.w3.org/2000/svg" xmlns:xlink="http://www.w3.org/1999/xlink" viewBox="0 0 300 300" xml:space="preserve">
    <path fill="#444444" d="M183.409,36.458c-2.804,15.182-5.368,29.084-8.039,43.55c12.69,0,24.875,0.087,37.056-0.049
    c4.105-0.046,6.449-0.333,5.188,5.627c-4.028,19.029-3.674,19.104-23.223,19.104c-0.519,0-1.039-0.01-1.558,0.001
    c-7.241,0.149-16.119-2.211-21.271,1.146c-5.338,3.478-3.912,13.258-5.268,20.286c-5.348,27.734-10.73,55.47-15.327,83.334
    c-3.294,19.973,0.501,31.732,25.944,24.725c43.445-11.967,75.896-36.771,85.486-82.252c8.66-41.063,1.088-80.011-33.991-107.494
    c-30.646-24.009-66.415-25.417-102.058-13.324C79.538,46.997,54.224,82.308,44.25,129.441c-5.006,23.657-4.82,47.48,2.002,70.868
    c13.78,47.239,53.841,76.033,103.197,74.715c19.665-0.523,38.693-3.687,56.363-12.696c3.617-1.845,4.873-1.065,5.949,2.438
    c5.04,16.426,9.418,13.618-8.496,19.856c-50.959,17.741-100.137,16.51-143.729-19.657c-25.4-21.072-38.521-49.492-41.483-81.873
    c-4.606-50.334,8.128-95.685,43.104-133.456C98.783,9.004,164.214-6.259,215.963,13.281c42.371,16,70.137,56.458,72.868,103.263
    c3.972,68.056-38.509,118.097-88.521,138.286c-18.295,7.386-36.576,10.872-56.007,7.871
    c-15.234-2.354-26.829-16.446-26.409-33.403c0.589-23.805,7.095-46.578,11.081-69.784c2.85-16.598,6.281-33.099,9.704-49.591
    c0.893-4.298-0.345-5.786-4.521-5.234c-0.255,0.034-0.521,0.025-0.777,0c-6.306-0.625-14.994,2.891-18.249-1.699
    c-2.563-3.611,1.458-11.706,2.114-17.856c0.412-3.861,1.843-5.751,5.849-5.129c0.253,0.04,0.52,0.021,0.778,0.002
    c6.637-0.487,15.278,2.878,19.388-1.425c3.962-4.15,4.259-12.563,4.645-19.191c0.601-10.322,5.118-15.617,15.448-17.104
    C169.686,41.374,175.771,38.747,183.409,36.458z"></path>
    </svg>